<svg xmlns="http://www.w3.org/2000/svg" xmlns:xlink="http://www.w3.org/1999/xlink" fill="none" version="1.1" width="20" height="20" viewBox="0 0 20 20"><defs><clipPath id="master_svg0_32_0272"><rect x="0" y="0" width="20" height="20" rx="0"/></clipPath></defs><g clip-path="url(#master_svg0_32_0272)"><g><path d="M6.666664123535156,6.666656494140625L6.666664123535156,13.333356494140626L13.333364123535157,13.333356494140626L13.333364123535157,6.666656494140625L6.666664123535156,6.666656494140625ZM4.999994123535156,4.999986494140625L14.999964123535156,4.999986494140625L14.999964123535156,14.999956494140624L4.999994123535156,14.999956494140624L4.999994123535156,4.999986494140625ZM4.999994123535156,1.666656494140625L6.666664123535156,1.666656494140625L6.666664123535156,4.166656494140625L4.999994123535156,4.166656494140625L4.999994123535156,1.666656494140625ZM4.999994123535156,15.833356494140626L6.666664123535156,15.833356494140626L6.666664123535156,18.333356494140624L4.999994123535156,18.333356494140624L4.999994123535156,15.833356494140626ZM1.6666641235351562,4.999986494140625L4.166664123535156,4.999986494140625L4.166664123535156,6.666656494140625L1.6666641235351562,6.666656494140625L1.6666641235351562,4.999986494140625ZM1.6666641235351562,13.333356494140626L4.166664123535156,13.333356494140626L4.166664123535156,14.999956494140624L1.6666641235351562,14.999956494140624L1.6666641235351562,13.333356494140626ZM15.833364123535157,4.999986494140625L18.333364123535155,4.999986494140625L18.333364123535155,6.666656494140625L15.833364123535157,6.666656494140625L15.833364123535157,4.999986494140625ZM15.833364123535157,13.333356494140626L18.333364123535155,13.333356494140626L18.333364123535155,14.999956494140624L15.833364123535157,14.999956494140624L15.833364123535157,13.333356494140626ZM13.333364123535157,1.666656494140625L14.999964123535156,1.666656494140625L14.999964123535156,4.166656494140625L13.333364123535157,4.166656494140625L13.333364123535157,1.666656494140625ZM13.333364123535157,15.833356494140626L14.999964123535156,15.833356494140626L14.999964123535156,18.333356494140624L13.333364123535157,18.333356494140624L13.333364123535157,15.833356494140626Z" fill="#000000" fill-opacity="1"/></g></g></svg>