<svg xmlns="http://www.w3.org/2000/svg" xmlns:xlink="http://www.w3.org/1999/xlink" fill="none" version="1.1" width="20" height="20" viewBox="0 0 20 20"><defs><clipPath id="master_svg0_32_0288"><rect x="0" y="0" width="20" height="20" rx="0"/></clipPath></defs><g clip-path="url(#master_svg0_32_0288)"><g><path d="M5,5.833343505859375C5,3.071913505859375,7.23857,0.833343505859375,10,0.833343505859375C12.7614,0.833343505859375,15,3.071913505859375,15,5.833343505859375C15,6.051793505859375,14.9859,6.267263505859375,14.9587,6.478813505859375C16.475,7.336783505859375,17.5,8.964593505859375,17.5,10.833343505859375C17.5,13.594743505859375,15.2614,15.833343505859375,12.5,15.833343505859375L10.83333,15.833343505859375L10.83333,18.333343505859375L9.16667,18.333343505859375L9.16667,15.833343505859375L7.08333,15.833343505859375C4.552020000000001,15.833343505859375,2.5,13.781343505859375,2.5,11.250043505859376C2.5,9.405263505859375,3.58927,7.816393505859375,5.15915,7.089213505859375C5.055289999999999,6.687933505859375,5,6.267003505859375,5,5.833343505859375ZM5.8413699999999995,8.609923505859374C4.85147,9.076513505859374,4.16667,10.084013505859375,4.16667,11.250043505859376C4.16667,12.860843505859375,5.4725,14.166643505859374,7.08333,14.166643505859374L12.5,14.166643505859374C14.3409,14.166643505859374,15.8333,12.674243505859375,15.8333,10.833343505859375C15.8333,9.421343505859374,14.9551,8.212413505859374,13.712,7.726963505859375L13.0107,7.453113505859375C13.1589,6.919483505859375,13.3333,6.393203505859375,13.3333,5.833343505859375C13.3333,3.992393505859375,11.84092,2.500013505859375,10,2.500013505859375C8.15905,2.500013505859375,6.66667,3.992393505859375,6.66667,5.833343505859375C6.66667,6.923203505859375,7.18883,7.890873505859375,8.000160000000001,8.500423505859375L6.99903,9.832923505859375C6.54806,9.494093505859375,6.15597,9.080263505859374,5.8413699999999995,8.609923505859374Z" fill="#000000" fill-opacity="1"/></g></g></svg>