<svg xmlns="http://www.w3.org/2000/svg" xmlns:xlink="http://www.w3.org/1999/xlink" fill="none" version="1.1" width="20" height="20" viewBox="0 0 20 20"><defs><clipPath id="master_svg0_32_0280"><rect x="0" y="0" width="20" height="20" rx="0"/></clipPath></defs><g clip-path="url(#master_svg0_32_0280)"><g><path d="M4.441192109375,2.7262752578125C5.468762109375,2.3609582578125,6.660252109375,2.5895335578125,7.482722109375,3.4120082578125C8.416832109375001,4.3460992578125,8.584912109375,5.7561292578125,7.986912109375,6.8614892578125L16.910862109375,15.7863392578125L15.732362109375,16.9649392578125L6.808182109375,8.0405792578125C5.702712109375,8.6390092578125,4.292242109375,8.471089257812501,3.357934109375,7.5367992578125C2.535225309375,6.7140892578125,2.306750109375,5.5221692578125,2.672509109375,4.4943892578125L4.536442109375,6.358289257812499C5.0246021093749995,6.8464392578125,5.816062109375,6.8464392578125,6.304212109374999,6.358289257812499C6.792362109375,5.870129257812501,6.792362109375,5.0786792578124995,6.304212109374999,4.5905292578125L4.441192109375,2.7262752578125ZM13.080662109375,4.2958892578125L15.732362109375,2.8227502578125L16.910862109375,4.0012692578125L15.437662109375,6.6529192578125L13.964462109375,6.9475392578125L12.196752109375,8.7153392578125L11.018252109375,7.5367992578125L12.785962109375,5.7690292578125L13.080662109375,4.2958892578125ZM7.482722109375,11.0723392578125L8.661252109374999,12.2508392578125L4.241812109375,16.6702392578125C3.916382109375,16.9956392578125,3.388742109375,16.9956392578125,3.063309109375,16.6702392578125C2.761117109375,16.3681392578125,2.739534109375,15.8915392578125,2.998550109375,15.5644392578125L3.063309109375,15.4917392578125L7.482722109375,11.0723392578125Z" fill="#000000" fill-opacity="1"/></g></g></svg>