<svg xmlns="http://www.w3.org/2000/svg" xmlns:xlink="http://www.w3.org/1999/xlink" fill="none" version="1.1" width="20" height="20" viewBox="0 0 20 20"><defs><clipPath id="master_svg0_32_0268"><rect x="0" y="0" width="20" height="20" rx="0"/></clipPath></defs><g clip-path="url(#master_svg0_32_0268)"><g><path d="M9.166671752929688,9.16668701171875L9.166671752929688,5.83335701171875L10.833341752929687,5.83335701171875L10.833341752929687,9.16668701171875L14.166671752929688,9.16668701171875L14.166671752929688,10.83335701171875L10.833341752929687,10.83335701171875L10.833341752929687,14.16668701171875L9.166671752929688,14.16668701171875L9.166671752929688,10.83335701171875L5.833341752929687,10.83335701171875L5.833341752929687,9.16668701171875L9.166671752929688,9.16668701171875ZM10.000001752929688,18.33338701171875C5.397631752929687,18.33338701171875,1.6666717529296875,14.60238701171875,1.6666717529296875,10.00001701171875C1.6666717529296875,5.39764701171875,5.397631752929687,1.66668701171875,10.000001752929688,1.66668701171875C14.602371752929688,1.66668701171875,18.333371752929686,5.39764701171875,18.333371752929686,10.00001701171875C18.333371752929686,14.60238701171875,14.602371752929688,18.33338701171875,10.000001752929688,18.33338701171875ZM10.000001752929688,16.66668701171875C13.681871752929688,16.66668701171875,16.666671752929688,13.68188701171875,16.666671752929688,10.00001701171875C16.666671752929688,6.31811701171875,13.681871752929688,3.33335701171875,10.000001752929688,3.33335701171875C6.318101752929688,3.33335701171875,3.3333417529296874,6.31811701171875,3.3333417529296874,10.00001701171875C3.3333417529296874,13.68188701171875,6.318101752929688,16.66668701171875,10.000001752929688,16.66668701171875Z" fill="#000000" fill-opacity="1"/></g></g></svg>